<?xml version="1.0" encoding="UTF-8"?>
<svg width="106px" height="108px" viewBox="0 0 106 108" version="1.1" xmlns="http://www.w3.org/2000/svg" xmlns:xlink="http://www.w3.org/1999/xlink">
    <title>logo-weave</title>
    <g id="Page-1" stroke="none" stroke-width="1" fill="none" fill-rule="evenodd">
        <g id="logo-weave" fill-rule="nonzero">
            <path d="M26.9024803,101 C22.5323122,98.671268 18.5424098,95.7419574 15,92.3477226 L15,76.7733766 L30.6931763,62.6488873 L30.6931763,76.7376132 L93.7220042,20 C97.1683164,24.2028166 99.9547316,28.9503058 102,34.0755716 L26.9024803,101" id="Path" fill="#FF4B19"></path>
            <path d="M59.807848,87.5220715 L105.439143,46.6342791 C105.769426,49.0485007 106,51.4946796 106,53.9997925 C106,59.395995 105.184473,64.5979641 103.709628,69.5152235 L60.8514568,107.20605 C57.9478812,107.687898 54.9861428,108 51.9454689,108 C49.2384009,108 46.5998821,107.736457 44,107.352555 L44,0.647444692 C46.5998821,0.263543192 49.2384009,0 51.9454689,0 C54.62304,0 57.2341392,0.258977877 59.807848,0.634578804 L59.807848,87.5220715" id="Path" fill="#00D2FF"></path>
            <path d="M44.086921,49.0038217 L85,12.0560096 C80.6707572,8.6637222 75.8121277,5.94318307 70.5653365,4 L0,67.9100984 C1.36079933,73.2423685 3.53362893,78.33219 6.44183403,83 L44.086921,49.0038217" id="Path" fill="#556991"></path>
            <path d="M15,75.1549957 L15,79 L31,64.6033351 L31,4 C25.0305913,6.60062568 19.6313798,10.2378146 15,14.6735845 L15,75.1549957" id="Path" fill="#FF4B19"></path>
        </g>
    </g>
</svg>