<?xml version="1.0" encoding="UTF-8"?>
<svg width="86px" height="106px" viewBox="0 0 86 106" version="1.1" xmlns="http://www.w3.org/2000/svg" xmlns:xlink="http://www.w3.org/1999/xlink">
    <title>logo-apple</title>
    <g id="Page-1" stroke="none" stroke-width="1" fill="none" fill-rule="evenodd">
        <g id="logo-apple" fill="#000000" fill-rule="nonzero">
            <path d="M71.8245757,56.3144672 C71.9729986,72.3558068 85.8462965,77.693898 86,77.7618473 C85.882695,78.1381238 83.7832747,85.3689537 78.6908794,92.8378901 C74.2885468,99.295347 69.7198749,105.728766 62.5225901,105.862015 C55.4505312,105.992803 53.1764736,101.653321 45.0911031,101.653321 C37.0081843,101.653321 34.4816003,105.728955 27.7871051,105.992992 C20.839895,106.257029 15.5494767,99.0104898 11.1109341,92.5766922 C2.04091819,79.4164795 -4.89045012,55.3891073 4.41662757,39.1702288 C9.04018008,31.1158682 17.3028283,26.0155051 26.2711924,25.8847168 C33.0931767,25.7541178 39.532128,30.4908859 43.7026794,30.4908859 C47.8705906,30.4908859 55.6953252,24.7944993 63.9213863,25.6310898 C67.3650994,25.774938 77.0318244,27.0271739 83.238806,36.1456322 C82.7386566,36.4567985 71.7046304,42.9034667 71.8245757,56.3144672 M58.5334653,16.9244915 C62.2217838,12.443811 64.704237,6.20629042 64.0269986,0 C58.7105544,0.214447302 52.2817871,3.55550977 48.4684313,8.03372969 C45.0509327,11.999396 42.0579576,18.3466954 42.8655139,24.4301471 C48.791303,24.8902719 54.8449582,21.4080111 58.5334653,16.9244915" id="Shape"></path>
        </g>
    </g>
</svg>