<?xml version="1.0" encoding="UTF-8"?>
<svg width="94px" height="107px" viewBox="0 0 94 107" version="1.1" xmlns="http://www.w3.org/2000/svg" xmlns:xlink="http://www.w3.org/1999/xlink">
    <title>logo-shopify</title>
    <g id="Page-1" stroke="none" stroke-width="1" fill="none" fill-rule="evenodd">
        <g id="logo-shopify" fill-rule="nonzero">
            <path d="M82.3305878,20.8332828 C82.2566237,20.2955167 81.785976,19.9979036 81.3970201,19.965122 C81.0088002,19.9327087 72.7925214,19.3231175 72.7925214,19.3231175 C72.7925214,19.3231175 67.0862406,13.652631 66.4599371,13.0249916 C65.8332655,12.3977205 64.6093608,12.588517 64.1342974,12.7284835 C64.064381,12.7491101 62.8875779,13.1126548 60.9409586,13.7156159 C59.0348173,8.22524424 55.6707353,3.17981879 49.7524976,3.17981879 C49.589114,3.17981879 49.4209467,3.18644879 49.2527794,3.19602545 C47.5696345,0.967979126 45.4846544,0 43.6837556,0 C29.897349,0 23.3108578,17.2508761 21.2457486,26.0172015 C15.8886818,27.6787517 12.0830228,28.8599956 11.5969199,29.0128538 C8.60670665,29.9517346 8.51213554,30.0460279 8.11949986,32.8663536 C7.82401115,35.00158 0,95.566207 0,95.566207 L60.9663493,107 L94,99.8469731 C94,99.8469731 82.403816,21.371049 82.3309558,20.8332828 L82.3305878,20.8332828 Z M57.571357,14.758735 L52.4126319,16.3569319 C52.4144718,15.9930189 52.4163117,15.6349992 52.4163117,15.2434612 C52.4163117,11.8312243 51.9430882,9.08382846 51.1839435,6.90587543 C54.2334017,7.28894175 56.2642886,10.7619536 57.571357,14.758735 Z M47.4010992,7.58250315 C48.2489274,9.70888956 48.8001629,12.7605285 48.8001629,16.8784914 C48.8001629,17.0891779 48.7983229,17.2818161 48.796483,17.4766642 C45.4416006,18.5168366 41.7960133,19.6461456 38.1423303,20.7791379 C40.1938242,12.8540851 44.0392252,9.02636851 47.4010992,7.58250315 Z M43.3051032,3.70137832 C43.9001284,3.70137832 44.4995694,3.90359314 45.0732517,4.29881445 C40.6549043,6.3798959 35.9189894,11.6212745 33.9190129,22.0881934 L25.4974006,24.6989377 C27.8399674,16.7153199 33.4023676,3.70137832 43.3047352,3.70137832 L43.3051032,3.70137832 Z" id="Shape" fill="#95BF46"></path>
            <path d="M81.4087364,19.3932515 C81.0208774,19.3606249 72.8122368,18.7470232 72.8122368,18.7470232 C72.8122368,18.7470232 67.1112609,13.0392299 66.4855395,12.4074612 C66.2513536,12.1724017 65.9355518,12.0519059 65.6054121,12 L61,107 L94,99.8006541 C94,99.8006541 82.4142287,20.8084283 82.3414362,20.2671241 C82.2675408,19.7258199 81.7973307,19.4262488 81.4087364,19.3932515" id="Path" fill="#5E8E3E"></path>
            <path d="M50,37.6190631 L45.9653097,49.9079688 C45.9653097,49.9079688 42.4303538,47.9761406 38.097135,47.9761406 C31.7445663,47.9761406 31.4248966,52.0581354 31.4248966,53.0867518 C31.4248966,58.6993547 45.7134377,60.8498945 45.7134377,73.9964781 C45.7134377,84.3397461 39.3065579,91 30.6678227,91 C20.3013403,91 15,84.3938641 15,84.3938641 L17.7756949,75.0034473 C17.7756949,75.0034473 23.2250237,79.7938288 27.8232366,79.7938288 C30.8278397,79.7938288 32.0500203,77.371579 32.0500203,75.6017318 C32.0500203,68.280491 20.3275846,67.9539165 20.3275846,55.9236579 C20.3275846,45.7983551 27.4251987,36 41.7523771,36 C47.2727841,36 50,37.6190631 50,37.6190631" id="Path" fill="#FFFFFF"></path>
        </g>
    </g>
</svg>